<svg xmlns="http://www.w3.org/2000/svg" xmlns:xlink="http://www.w3.org/1999/xlink" id="Calque_2_00000045582765475432899690000005742180462517207178_" x="0px" y="0px" viewBox="0 0 972.5 209.9" style="enable-background:new 0 0 972.5 209.9;" xml:space="preserve"> <style type="text/css"> .st0{enable-background:new ;} .st1{fill:#FF772C;} </style> <g class="st0"> <path class="st1" d="M431.6,37.2v134.9h-74.4v-26.8h45.6V37.2H431.6z"></path> </g> <g class="st0"> <path class="st1" d="M450.4,120.5c0-30,12.3-54.1,46.2-54.1c33.1,0,45.4,22.6,45.4,52v11.5h-61.9c2,11.7,8.3,17.5,26.6,17.5 c5,0,14.5,0,28.6-2.8v26.4c-15.5,3.2-24,3.2-31.5,3.2C457.6,174.1,450.4,141.8,450.4,120.5z M513.1,110.6 c-0.8-12.3-5.8-17.5-16.9-17.5c-10.7,0-15.9,5.6-16.9,17.5H513.1z"></path> </g> <g class="st0"> <path class="st1" d="M626.4,145.3v26.8h-56.5v-77H554V68.4h15.9V33.3h28.8v35.1h27.8v26.8h-27.8v50.2H626.4z"></path> <path class="st1" d="M708.3,33.3h28.8v138.8h-28.8v-12.7c-7.1,10.7-17.1,14.7-28.8,14.7c-30,0-44.2-24.6-44.2-53.8 c0-29.2,14.3-54,44.2-54c11.7,0,21.6,4,28.8,14.7V33.3z M708.3,120.3c0-18.6-7.1-27.2-22-27.2c-15.1,0-22.2,8.5-22.2,27.2 c0,18.4,7.1,27,22.2,27C701.2,147.3,708.3,138.8,708.3,120.3z"></path> </g> <g class="st0"> <path class="st1" d="M759.9,120.5c0-30,12.3-54.1,46.2-54.1c33.1,0,45.4,22.6,45.4,52v11.5h-61.9c2,11.7,8.3,17.5,26.6,17.5 c5,0,14.5,0,28.6-2.8v26.4c-15.5,3.2-24,3.2-31.5,3.2C767,174.1,759.9,141.8,759.9,120.5z M822.6,110.6 c-0.8-12.3-5.8-17.5-16.9-17.5c-10.7,0-15.9,5.6-16.9,17.5H822.6z"></path> </g> <g class="st0"> <path class="st1" d="M966.6,68.4l-31.3,103.7h-43.8L859.8,68.4h30.7l21,74h3.2l21.2-74H966.6z"></path> </g> <g> <polygon class="st1" points="203.8,44.3 164.2,4.7 124.7,4.7 164.2,44.3 "></polygon> <polygon class="st1" points="124.7,202.7 164.2,202.7 203.8,163.1 164.2,163.1 "></polygon> <path class="st1" d="M243.4,83.9h-79.1v39.6h79.1c0-0.3,20.2-20.7,20.2-21C263.6,102.3,243.4,84.1,243.4,83.9L243.4,83.9z"></path> <polygon class="st1" points="124.6,163.1 124.7,163.1 124.7,163.1 124.7,163.1 124.7,44.3 124.7,44.3 85.1,4.7 85.1,44.3 85.1,44.3 85.1,163 85.1,163.1 85.1,163.1 45.5,163.1 45.5,123.5 45.5,83.9 6,123.5 6,163.1 45.5,202.7 85.1,202.7 124.6,163.1 124.6,163.1 "></polygon> </g> </svg>